<svg width="26" height="21" viewBox="0 0 26 21" fill="none" xmlns="http://www.w3.org/2000/svg">
<path d="M22.9878 0.533203H5.82874C4.47685 0.533203 3.37744 1.63261 3.37744 2.9845V9.11273H5.82874V5.43579L13.6729 11.3189C13.8851 11.4778 14.1431 11.5637 14.4083 11.5637C14.6734 11.5637 14.9314 11.4778 15.1437 11.3189L22.9878 5.43579V16.4666H13.1826V18.9179H22.9878C24.3397 18.9179 25.4391 17.8185 25.4391 16.4666V2.9845C25.4391 1.63261 24.3397 0.533203 22.9878 0.533203ZM14.4083 8.80632L6.64502 2.9845H22.1715L14.4083 8.80632Z" fill="white"/>
<path d="M0.92627 10.3384H9.5058V12.7897H0.92627V10.3384ZM3.37756 14.0153H10.7314V16.4666H3.37756V14.0153ZM7.0545 17.6923H11.9571V20.1436H7.0545V17.6923Z" fill="white"/>
</svg>
